<?xml version="1.0" encoding="utf-8"?>
<!-- Generator: Adobe Illustrator 27.3.1, SVG Export Plug-In . SVG Version: 6.00 Build 0)  -->
<svg version="1.1" xmlns="http://www.w3.org/2000/svg" xmlns:xlink="http://www.w3.org/1999/xlink" x="0px" y="0px"
	 viewBox="0 0 841.9 931.1" style="enable-background:new 0 0 841.9 931.1;" xml:space="preserve">
<style type="text/css">
	.st0{opacity:0.5;fill:#BCB9D8;}
</style>
<g id="Layer_1">
</g>
<g id="Layer_2">
	<path class="st0" d="M419.7,849.4c-2.3-24.8-1.2-24.3,2-22.2c0.8,0.5,9.5,5.8,17.2,7c7.7,1.2,16.9-5.6,21.2-6.2
		c6.4-1,7.3,16.4,7.9,22c0.6,5.6-4.5,21.3,0,21.5c4.5,0.2,2.1-8.4,1.1-10.8s2.1-26.5,3.4-26.8c1.3-0.3,3.1,5,4.2,20.9
		c1.1,15.9-6.9,32.1,1.3,31.5c8.1-0.6,1.1-18.7,1.4-26.6c0.3-7.9,1.5-24.8,6-26.3c4.5-1.5,15.5,13.9,22.4,14.2
		c21.5-0.6,12.1-44.5,31.8-39s21.9,28.4,17.2,51.7c-7.2,35.1,5.5,35.2,11.9,35c15-0.5,9.5-26.8,6.5-51.9c-1.5-12.5-0.4-26.2,0.3-33
		c2.1-20.4,18.7-35.1,21.2-35.3c2.4-0.2,1.6,15.9,1.7,19.6c0.1,3.7-5.5,14.9,0,14.8c5.5-0.1,2.1-8.2,1.3-11.6
		c-0.9-3.4,1.2-25.2,3.2-25.8c2-0.6,4.5,12.7,5,27.2c0.5,14.6-8.2,25.5,0,25c8.2-0.5,1-13.9,1-17.5c1.1-30.7,7-39.6,11.4-39.7
		c22.9-1.6,21,17.3,16.7,34.4c-4.3,17.1-6.2,30,4.6,30.3c10.8,0.3,9.2-13.4,7.4-31.6c-1.8-18.2,3.5-32.1,5.2-32.2
		c1.7-0.1-1.8,15.6,0.4,15.5c2.2-0.1,1.3-4,0.7-5.1s0.2-12.5,1.3-13.4c1.1-0.8,1.8,2.3,2.6,10c0.7,7.7-1.2,9.9-1.5,11.7
		c-0.3,1.9-0.1,4.2,2.2,4.1c2.4-0.1,1.1-4.6,0-8.1c0.4-13.4,2.6-19.1,4.9-19.2c10.3-0.5,26.5,18.2,28.8,40.4
		c2.5,39.7-14.2,79.5,1.4,78.7c15.6-0.8,6.2-50.2,5.4-61s2-33.9,3.5-45.3c1.5-11.4,8.9-18.7,10.3-19.1c1.4-0.3,0.4,11.9,0.4,13.7
		c0,1.9-1.4,4.5,0.9,4.5c2.3,0,0.5-5.1,0.1-6c-0.3-0.9-0.2-12.3,1.6-12.5c1.8-0.2,2.4,12.3,2.6,15.9c0.2,3.6-3,10.6,0.5,10.3
		c3.5-0.2,0.3-5.8,0-8c0.2-8,2.2-18.9,3.7-18.8c17.4,1.4-3.6,76.2,13.1,76.2c12.6,0,3.5-33.3,3-49.7s2.2-26.6,7.8-26.2
		c5.6,0.4-2.4,19.8,7.2,19.5s3.2-14.8,6.6-15.9c3.4-1.2,11.8,1.1,10.4,12.3c-2.7,22.5,4.1,25.1,7.1,23c4.2-3.1,0-8.3,0-30.2
		c0-17.6,0-23,0-23l0-3.9l0-654.9c0-6.6-5-12-11.1-12l-343.5,0h-22.4l-343.5,0c-6.1,0-11.1,5.4-11.1,12l0,654.9l0,3.8
		c0,0,0,5.5,0,23.1c0,21.9-4.2,27.1,0,30.2c2.9,2.1,9.8-0.5,7.1-23c-1.4-11.2,7-13.4,10.4-12.3c3.4,1.2-2.9,15.6,6.6,15.9
		c9.5,0.3,1.6-19.1,7.2-19.5c5.6-0.4,8.4,9.8,7.8,26.2s-9.6,49.7,3,49.7c16.7,0-4.4-74.9,13.1-76.2c1.5-0.1,3.5,10.8,3.7,18.8
		c-0.3,2.2-3.5,7.8,0,8c3.5,0.2,0.3-6.7,0.5-10.3c0.2-3.6,0.7-16.2,2.6-15.9c1.8,0.2,1.9,11.6,1.6,12.5c-0.3,0.9-2.2,6,0.1,6
		c2.3,0,0.9-2.7,0.9-4.5c0-1.9-1-14.1,0.4-13.7s8.8,7.7,10.3,19.1c1.5,11.4,4.4,34.5,3.5,45.3s-10.3,60.2,5.4,61
		c15.6,0.8-1.1-38.9,1.4-78.7c2.4-22.2,18.5-40.9,28.8-40.4c2.4,0.1,4.5,5.8,4.9,19.2c-1.1,3.5-2.4,8,0,8.1c2.4,0.1,2.6-2.2,2.2-4.1
		c-0.3-1.9-2.2-4.1-1.5-11.7c0.7-7.7,1.5-10.8,2.6-10c1.1,0.8,1.8,12.2,1.3,13.4s-1.5,5,0.7,5.1c2.2,0.1-1.3-15.6,0.4-15.5
		c1.7,0.1,7.1,13.9,5.2,32.2c-1.8,18.2-3.4,32,7.4,31.6s8.9-13.2,4.6-30.3c-4.3-17.1-6.2-36,16.7-34.4c4.4,0.1,10.3,9.1,11.4,39.7
		c0,3.6-7.3,17.1,1,17.5c8.2,0.5-0.5-10.5,0-25c0.5-14.6,3-27.8,5-27.2c2,0.6,4.1,22.4,3.2,25.8c-0.9,3.4-4.2,11.5,1.3,11.6
		c5.5,0.1-0.1-11,0-14.8c0.1-3.7-0.7-19.9,1.7-19.6c2.4,0.2,19.1,14.9,21.2,35.3c0.7,6.8,1.8,20.5,0.3,33c-3,25.1-8.5,51.4,6.5,51.9
		c6.4,0.2,19.1,0.1,11.9-35c-4.6-23.4-2.5-46.2,17.2-51.7s10.3,38.5,31.8,39c6.9-0.2,17.9-15.7,22.4-14.2c4.5,1.5,5.7,18.4,6,26.3
		c0.3,7.9-6.7,26,1.4,26.6c8.1,0.6,0.2-15.6,1.3-31.5c1.1-15.9,2.9-21.3,4.2-20.9c1.3,0.3,4.5,24.4,3.4,26.8s-3.4,11,1.1,10.8
		c4.5-0.2-0.6-15.9,0-21.5c0.6-5.6,1.5-23,7.9-22c4.3,0.6,13.5,7.3,21.2,6.2c7.7-1.2,16.4-6.4,17.2-7c3.2-2.1,4.4-2.6,2,22.2
		C407.2,860.2,420.7,860.2,419.7,849.4z"/>
</g>
</svg>
