<?xml version="1.0" encoding="utf-8"?>
<!-- Generator: Adobe Illustrator 27.3.1, SVG Export Plug-In . SVG Version: 6.00 Build 0)  -->
<svg version="1.1" xmlns="http://www.w3.org/2000/svg" xmlns:xlink="http://www.w3.org/1999/xlink" x="0px" y="0px"
	 viewBox="0 0 904 2258.3" style="enable-background:new 0 0 904 2258.3;" xml:space="preserve">
<style type="text/css">
	.st0{display:none;}
	.st1{opacity:0.65;fill:#BCB9D8;enable-background:new    ;}
	.st2{display:none;fill:#EEC2DB;}
	.st3{display:none;fill:#FCFFBC;}
	.st4{display:none;fill:#C4E5CB;}
	.st5{display:none;fill:#A8D9EA;}
	.st6{display:none;fill:#BCB9D8;}
</style>
<g id="Layer_2" class="st0">
	
		<image style="display:inline;overflow:visible;" width="2000" height="2000" xlink:href="14132BF24DA00296.jpg"  transform="matrix(2.1724 0 0 2.1724 -1722.2456 -2070.8027)">
	</image>
</g>
<g id="Layer_1">
	<g id="Layer_1_00000175302870611532308060000000666415733225677189_">
	</g>
	<g id="Layer_2_00000025429402872506212220000014162176514187891849_">
		<path class="st1" d="M453.3,2155.4c-2.7-24.8-1.4-24.3,2.3-22.2c0.9,0.5,11.1,5.8,20,7c9,1.2,19.7-5.6,24.7-6.2
			c7.5-1,8.5,16.4,9.2,22c0.7,5.6-5.2,21.3,0,21.5s2.4-8.4,1.3-10.8c-1.2-2.4,2.4-26.5,4-26.8s3.6,5,4.9,20.9
			c1.3,15.9-8,32.1,1.5,31.5c9.4-0.6,1.3-18.7,1.6-26.6c0.3-7.9,1.7-24.8,7-26.3c5.2-1.5,18,13.9,26.1,14.2c25-0.6,14.1-44.5,37-39
			c22.9,5.5,25.5,28.4,20,51.7c-8.4,35.1,6.4,35.2,13.9,35c17.5-0.5,11.1-26.8,7.6-51.9c-1.7-12.5-0.5-26.2,0.3-33
			c2.4-20.4,21.8-35.1,24.7-35.3c2.8-0.2,1.9,15.9,2,19.6c0.1,3.7-6.4,14.9,0,14.8c6.4-0.1,2.4-8.2,1.5-11.6
			c-1-3.4,1.4-25.2,3.7-25.8s5.2,12.7,5.8,27.2c0.6,14.6-9.5,25.5,0,25s1.2-13.9,1.2-17.5c1.3-30.7,8.1-39.6,13.3-39.7
			c26.7-1.6,24.4,17.3,19.4,34.4c-5,17.1-7.2,30,5.4,30.3c12.6,0.3,10.7-13.4,8.6-31.6c-2.1-18.2,4.1-32.1,6.1-32.2
			c2-0.1-2.1,15.6,0.5,15.5c2.6-0.1,1.5-4,0.8-5.1c-0.7-1.1,0.2-12.5,1.5-13.4c1.3-0.8,2.1,2.3,3,10c0.8,7.7-1.4,9.9-1.7,11.7
			c-0.3,1.9-0.1,4.2,2.6,4.1c2.8-0.1,1.3-4.6,0-8.1c0.5-13.4,3-19.1,5.7-19.2c12-0.5,30.8,18.2,33.5,40.4
			c2.9,39.7-16.5,79.5,1.6,78.7c18.2-0.8,7.2-50.2,6.3-61s2.3-33.9,4.1-45.3c1.7-11.4,10.4-18.7,12-19.1c1.6-0.3,0.5,11.9,0.5,13.7
			c0,1.9-1.6,4.5,1,4.5c2.7,0,0.6-5.1,0.1-6c-0.3-0.9-0.2-12.3,1.9-12.5c2.1-0.2,2.8,12.3,3,15.9c0.2,3.6-3.5,10.6,0.6,10.3
			c4.1-0.2,0.3-5.8,0-8c0.2-8,2.6-18.9,4.3-18.8c20.3,1.4-4.2,76.2,15.2,76.2c14.7,0,4.1-33.3,3.5-49.7c-0.6-16.4,2.6-26.6,9.1-26.2
			c6.5,0.4-2.8,19.8,8.4,19.5c11.2-0.3,3.7-14.8,7.7-15.9c4-1.2,13.7,1.1,12.1,12.3c-3.1,22.5,4.8,25.1,8.3,23c4.9-3.1,0-8.3,0-30.2
			c0-17.6,0-23,0-23v-3.9V86c0-6.6-5.8-12-12.9-12H459h-26.1H33.1c-7.1,0-12.9,5.4-12.9,12v1958.4v3.8c0,0,0,5.5,0,23.1
			c0,21.9-4.9,27.1,0,30.2c3.4,2.1,11.4-0.5,8.3-23c-1.6-11.2,8.1-13.4,12.1-12.3c4,1.2-3.4,15.6,7.7,15.9s1.9-19.1,8.4-19.5
			c6.5-0.4,9.8,9.8,9.1,26.2s-11.2,49.7,3.5,49.7c19.4,0-5.1-74.9,15.2-76.2c1.7-0.1,4.1,10.8,4.3,18.8c-0.3,2.2-4.1,7.8,0,8
			s0.3-6.7,0.6-10.3s0.8-16.2,3-15.9c2.1,0.2,2.2,11.6,1.9,12.5c-0.3,0.9-2.6,6,0.1,6s1-2.7,1-4.5c0-1.9-1.2-14.1,0.5-13.7
			c1.6,0.4,10.2,7.7,12,19.1c1.7,11.4,5.1,34.5,4.1,45.3c-1,10.8-12,60.2,6.3,61c18.2,0.8-1.3-38.9,1.6-78.7
			c2.8-22.2,21.5-40.9,33.5-40.4c2.8,0.1,5.2,5.8,5.7,19.2c-1.3,3.5-2.8,8,0,8.1c2.8,0.1,3-2.2,2.6-4.1c-0.3-1.9-2.6-4.1-1.7-11.7
			c0.8-7.7,1.7-10.8,3-10c1.3,0.8,2.1,12.2,1.5,13.4s-1.7,5,0.8,5.1c2.6,0.1-1.5-15.6,0.5-15.5c2,0.1,8.3,13.9,6.1,32.2
			c-2.1,18.2-4,32,8.6,31.6c12.6-0.4,10.4-13.2,5.4-30.3c-5-17.1-7.2-36,19.4-34.4c5.1,0.1,12,9.1,13.3,39.7
			c0,3.6-8.5,17.1,1.2,17.5c9.5,0.5-0.6-10.5,0-25c0.6-14.6,3.5-27.8,5.8-27.2c2.3,0.6,4.8,22.4,3.7,25.8c-1,3.4-4.9,11.5,1.5,11.6
			c6.4,0.1-0.1-11,0-14.8c0.1-3.7-0.8-19.9,2-19.6c2.8,0.2,22.2,14.9,24.7,35.3c0.8,6.8,2.1,20.5,0.3,33
			c-3.5,25.1-9.9,51.4,7.6,51.9c7.5,0.2,22.2,0.1,13.9-35c-5.4-23.4-2.9-46.2,20-51.7c22.9-5.5,12,38.5,37,39
			c8-0.2,20.8-15.7,26.1-14.2s6.6,18.4,7,26.3c0.3,7.9-7.8,26,1.6,26.6c9.4,0.6,0.2-15.6,1.5-31.5c1.3-15.9,3.4-21.3,4.9-20.9
			c1.5,0.3,5.2,24.4,4,26.8c-1.3,2.4-4,11,1.3,10.8s-0.7-15.9,0-21.5c0.7-5.6,1.7-23,9.2-22c5,0.6,15.7,7.3,24.7,6.2
			c9-1.2,19.1-6.4,20-7c3.7-2.1,5.1-2.6,2.3,22.2C438.8,2166.2,454.5,2166.2,453.3,2155.4z"/>
	</g>
	<path class="st2" d="M84,1146.3c-20,136-56,220,0,272c28,28,0,112,44,112s22.8-32,45.4-52c22.6-20,6.6,25.6,74.6-20
		c40-4,100,16,128,4c28-12,204-68,208-104C588,1322.3,84,1146.3,84,1146.3z"/>
	<path class="st3" d="M84.2,657.8c-6.2,67-9,427-23.2,508s12.3,129.3,65.3,59.2c53-70.1,18.7,49.6,73.2,56.7s79.5-36.5,93.5,22.8
		s23.4,174.5,74.8,176.1s102.8-26.5,135.6,0s79.5,10.9,93.5,23.4c14,12.5,53,49.9,84.1,49.9s35.8-39,62.3-51.4
		c26.5-12.5,53-9.3,67-31.2c14-21.8,6.2-48.3,28-56.1c21.8-7.8,57.7-15.6,45.2-116.9c-12.5-101.3-21.8-208.8-20.3-222.8
		c1.6-14-123.1-240-194.8-243.1S84.2,657.8,84.2,657.8z"/>
	<path class="st4" d="M277.4,822.9c0,0-3.1,56.1,53,74.8c17.1,12.5-9.3,113.8,12.5,123.1c21.8,9.3,32.7-17.1,53-14
		c20.3,3.1,34.3,42.1,29.6,98.2c-4.7,56.1-12.5,191.7,35.8,187c48.3-4.7,24.9-141.8,43.6-152.7c18.7-10.9,26.5,24.9,46.7,23.4
		c20.3-1.6,32.7-3.1,67-53c34.3-49.9-1.6,121.5,48.3,126.2c49.9,4.7,10.9-160.5,43.6-187c32.7-26.5,37.4-165.2,18.7-207.3
		C710.7,799.6,277.4,822.9,277.4,822.9z"/>
	<path class="st2" d="M173.4,734.9c9,48,28.5,72.9,42,93.5c13.5,20.6,12,53.6,48,37.1c36-16.5,42-37.5,63-16.5
		c21,21,37.5,22.5,81,4.5s27,66,34.5,93.1c7.5,27,15,54,52.5,40.5c37.5-13.5,13.5-100.6,37.5-105.1c24-4.5,54,1.5,84,36
		c30,34.5,37.5-7.5,52.5-4.5c15,3-4.5,45,10.5,61.5c15,16.5,37.5,28.5,34.5,61.5c-3,33,49.5,33,54,57c4.5,24-18,163.6,12,180.1
		c30,16.5,48,9,49.5-39c1.5-48-12-79.5,13.5-88.6s43.5,6,40.5-36c-3-42-38.9-270.6-37.4-362.7c1.4-92.1-21.1-192.7-63.1-186.7
		C740.7,566.9,173.4,734.9,173.4,734.9z"/>
	<path class="st5" d="M62.2,604.1c-8.9,113.4,35.4,49.6,35.4,83.3s-21.3,207.3,49.6,210.8s40.7-152.4,77.9-166.5s81.5-0.6,97.4,43.1
		c15.9,43.7,72.6,43.7,88.6-14.8c15.9-58.5,35.4-97.4,70.9-74.4c35.4,23,3.5,122.4,39,128.5c35.4,6.1,47.7-21.1,46.1-114.4
		c7.1-12.4,21.3,28.3,39,15.9c17.7-12.4,42.5-58.5,79.7-44.3c37.2,14.2,65.5,0,77.9-30.1c12.4-30.1,24.8-33.7,42.5-12.4
		c17.7,21.3,4,75.1,11.6,95.7c18.5,50.2,71.5,11.9,55.4-49.6c-18.3-70.1-6.9-202.9-38-231.2c-31.1-28.3-498.5-169.2-567.6-149.7
		C198.6,313.6,101.2,366.7,87,396.9S62.2,604.1,62.2,604.1z"/>
	<path class="st6" d="M450.2,59c-69.6-0.6-308,47.6-360.6,255C57.1,402.2,54,457.9,37,493.5s-1.5,117.6,48,88.2s-6.2-111.4,31-142.4
		s13.9,35.6,60.4,24.8c46.4-10.8,21.7-86.7,55.7-89.8c34-3.1,41.8,24.8,41.8,63.5s-31,185.7,32.5,201.2s32.5-125.4,54.2-157.9
		c21.7-32.5,24.8-65,49.5-46.4s46.4,63.5,69.6,6.2s74.3,18.6,54.2,77.4c-20.1,58.8,20.1,103.7,49.5,83.6s-17-116.1,37.1-116.1
		S679.2,543,673.1,591c-6.2,48-18.6,176.4,17,182.6c35.6,6.2,57.3-9.3,52.6-109.9s13.9-71.2,38.7-68.1s73.5-16.9,36.5-99
		c4.2,29.5,67.8-14.2,53.3-79.7c-10.6-48.1-46.2-85.9-53.3-115.3C810.8,272.2,687,60.9,450.2,59z"/>
</g>
</svg>
