<?xml version="1.0" encoding="utf-8"?>
<!-- Generator: Adobe Illustrator 27.3.1, SVG Export Plug-In . SVG Version: 6.00 Build 0)  -->
<svg version="1.1" id="Layer_1" xmlns="http://www.w3.org/2000/svg" xmlns:xlink="http://www.w3.org/1999/xlink" x="0px" y="0px"
	 viewBox="0 0 126 220.55" style="enable-background:new 0 0 126 220.55;" xml:space="preserve">
<style type="text/css">
	.st0{fill:#E17559;}
	.st1{fill:#EEC2DB;}
	.st2{fill:#FCFFBC;}
	.st3{fill:#A8D9EA;}
	.st4{fill:#FFFFFF;}
	.st5{font-family:'Verdana-Bold';}
	.st6{font-size:19.161px;}
</style>
<g id="Layer_1_00000165953783857919260900000015062845722008499349_">
</g>
<g id="Layer_3">
	<path class="st0" d="M62.19,213.55c-19.12,0-40.17-115.35-40.17-115.35h78.67C100.68,98.2,81.3,213.55,62.19,213.55z"/>
	<path class="st1" d="M89.38,129.88L34.8,84.01c-1.71-1.44-3.87-2.99-2.26-4.9l0,0c1.61-1.9,4.32-2.28,3.97,1.11l55.39,46.86
		c0,0,3.25,2.62,2.24,4.14l0,0C92.84,132.05,91.09,131.33,89.38,129.88z"/>
	<path class="st1" d="M84.48,150.49l-57.87-48.68c-1.81-1.53-4.08-3.2-2.61-4.94l0,0c1.47-1.74,4.16-1.91,4.05,1.37l58.75,49.71
		c0,0,3.44,2.79,2.54,4.2l0,0C88.09,152.85,86.29,152.02,84.48,150.49z"/>
	<path class="st1" d="M78.84,165.72l-48.5-40.11c-1.74-1.47-3.93-3.07-2.46-4.81l0,0c1.47-1.74,3.93,1.27,3.93,1.27l49.34,41.11
		c0,0,3.31,2.68,2.4,4.08l0,0C82.33,167.97,80.58,167.19,78.84,165.72z"/>
	<path class="st1" d="M74.07,184.64l-34.51-28.28c-1.23-1.04-2.82-2.13-1.35-3.87l0,0c1.47-1.74,3.08,0.55,3.08,0.55l35.07,29.03
		c0,0,2.36,1.88,1.4,3.24l0,0C76.64,186.12,75.31,185.69,74.07,184.64z"/>
	<path class="st1" d="M69.66,200.99L41.87,178.4c-0.99-0.84-2.29-1.68-0.82-3.42l0,0c1.47-1.74,2.67,0.21,2.67,0.21l28.21,23.22
		c0,0,1.91,1.49,0.93,2.84l0,0C71.78,202.1,70.65,201.83,69.66,200.99z"/>
	<path class="st1" d="M82.69,177.24l-27.15,22.33c-1,0.79-2.06,1.88-3.47,0.09l0,0c-1.41-1.79,2.07-3.67,2.07-3.67l26.47-21.49
		c0,0,1.81-1.55,2.93-0.31l0,0C84.16,175.4,83.68,176.45,82.69,177.24z"/>
	<path class="st1" d="M85.84,153.81L48.6,184.1c-1.36,1.08-2.86,2.51-4.27,0.72l0,0c-1.41-1.79,3.19-4.55,3.19-4.55l36.26-29.22
		c0,0,2.49-2.08,3.65-0.88l0,0C87.97,151.45,87.2,152.73,85.84,153.81z"/>
	<path class="st1" d="M91.99,128.43l-47.91,38.72c-1.75,1.38-3.7,3.17-5.12,1.38l0,0c-1.41-1.79,4.38-5.49,4.38-5.49l46.61-37.39
		c0,0,3.21-2.65,4.4-1.48l0,0C94.83,125.52,93.74,127.05,91.99,128.43z"/>
	<path class="st1" d="M88.01,111.12L42.7,147.78c-1.66,1.31-3.5,3.01-4.91,1.22l0,0c-1.41-1.79,4.09-5.26,4.09-5.26l44.09-35.4
		c0,0,3.04-2.52,4.22-1.33l0,0C90.67,108.34,89.66,109.81,88.01,111.12z"/>
	<path class="st1" d="M81.41,93.03L36.1,129.69c-1.66,1.31-3.5,3.01-4.91,1.22l0,0c-1.41-1.79,4.09-5.26,4.09-5.26l44.09-35.4
		c0,0,3.04-2.52,4.22-1.33l0,0C84.08,90.25,83.07,91.72,81.41,93.03z"/>
	<path class="st2" d="M62.19,41.99c-18.84,0-47.28,14.67-42.39,50c-6.67,6.89-8,30.89,13.78,18c6.67,8.44,13.78,10.59,18.67,3.74
		c8,7.81,16.89,5.4,20.44-0.06c8.44,8.32,13.78,2.98,17.78-2.8c9.78,4.89,25.78,1.34,13.78-18.89
		C104.68,72.66,93.47,41.99,62.19,41.99z"/>
	<path class="st1" d="M62.19,3.62c-18.84,0-47.28,14.67-42.39,50c-6.67,6.89-8,30.89,13.78,18c6.67,8.44,13.78,10.59,18.67,3.74
		c8,7.81,16.89,5.4,20.44-0.06c8.44,8.32,13.78,2.98,17.78-2.8c9.78,4.89,25.78,1.34,13.78-18.89
		C104.68,34.29,93.47,3.62,62.19,3.62z"/>
</g>
<g>
	<g>
		<circle class="st3" cx="60.62" cy="36.83" r="20.99"/>
	</g>
	<text transform="matrix(1 0 0 1 47.0454 43.7394)" class="st4 st5 st6">3€</text>
</g>
</svg>
