<?xml version="1.0" encoding="utf-8"?>
<!-- Generator: Adobe Illustrator 27.3.1, SVG Export Plug-In . SVG Version: 6.00 Build 0)  -->
<svg version="1.1" id="Layer_1" xmlns="http://www.w3.org/2000/svg" xmlns:xlink="http://www.w3.org/1999/xlink" x="0px" y="0px"
	 viewBox="0 0 140 160" style="enable-background:new 0 0 140 160;" xml:space="preserve">
<style type="text/css">
	.st0{fill:#E17559;}
	.st1{fill:#EEC2DB;}
	.st2{fill:#C4E5CB;}
	.st3{fill:#FCFFBC;}
	.st4{fill:#7BC2EB;}
	.st5{fill:#A8D9EA;}
	.st6{fill:#FFFFFF;}
	.st7{font-family:'Verdana-Bold';}
	.st8{font-size:19.161px;}
</style>
<g id="Layer_1_00000109742617241819765370000002098291101328754054_">
	<g id="Layer_1_00000064324470331054618790000016862860859617910682_">
	</g>
	<g id="Layer_3">
		<g>
			<g>
				<circle class="st0" cx="93.31" cy="51.28" r="33.62"/>
				<g>
					<path class="st1" d="M72.12,61.99l-0.48-0.28c-1.59-0.92-0.81-2.2,0.1-3.79l19.63-34.01c0.92-1.59,1.64-2.9,3.23-1.98
						l0.48,0.28c1.59,0.92,0.72,2.15-0.2,3.74l-19.62,34C74.34,61.54,73.71,62.9,72.12,61.99z"/>
					<path class="st1" d="M79.62,27.36l0.29-0.47c0.98-1.55,2.23-0.73,3.78,0.25L116.9,48.1c1.55,0.98,2.83,1.76,1.85,3.31
						l-0.29,0.47c-0.98,1.55-2.17,0.63-3.72-0.34L81.53,30.58C79.98,29.6,78.64,28.91,79.62,27.36z"/>
					<path class="st1" d="M73.74,37.56l0.29-0.47c0.98-1.55,2.23-0.73,3.78,0.25l33.21,20.96c1.55,0.98,2.83,1.76,1.85,3.31
						l-0.29,0.47c-0.98,1.55-2.17,0.63-3.72-0.34L75.65,40.77C74.1,39.79,72.76,39.11,73.74,37.56z"/>
					<path class="st1" d="M66.23,48.58l0.29-0.47c0.98-1.55,2.23-0.73,3.78,0.25l33.21,20.96c1.55,0.98,2.83,1.76,1.85,3.31
						l-0.29,0.47c-0.98,1.55-2.17,0.63-3.72-0.34L68.14,51.8C66.59,50.82,65.25,50.13,66.23,48.58z"/>
					<path class="st1" d="M83.3,67.57l-0.48-0.28c-1.59-0.92-0.81-2.2,0.1-3.79l19.63-34.01c0.92-1.59,1.64-2.9,3.23-1.98l0.48,0.28
						c1.59,0.92,0.72,2.15-0.2,3.74l-19.63,34C85.52,67.12,84.89,68.49,83.3,67.57z"/>
					<path class="st1" d="M93.3,74.22l-0.48-0.28c-1.59-0.92-0.81-2.2,0.1-3.79l19.63-34.01c0.92-1.59,1.64-2.9,3.23-1.98l0.48,0.28
						c1.59,0.92,0.72,2.15-0.2,3.74l-19.62,34C95.52,73.77,94.89,75.14,93.3,74.22z"/>
				</g>
			</g>
			<path class="st2" d="M57.43,110.36L57.43,110.36c-3.28,0.84-6.65-1.16-7.48-4.44l-23.77-93.2c-0.84-3.28,1.16-6.65,4.44-7.48l0,0
				C33.9,4.4,37.27,6.4,38.1,9.68l23.77,93.2C62.7,106.16,60.7,109.52,57.43,110.36z"/>
			<path class="st3" d="M19.14,103.91c0-29.07,22.41-52.63,50.06-52.63s50.06,23.56,50.06,52.63S19.14,132.97,19.14,103.91z"/>
			<polygon class="st4" points="7.8,93.88 19.32,154.11 118.81,154.11 130.6,96.58 			"/>
			<path class="st5" d="M131.48,99.26H8.92c-2.96,0-5.38-2.42-5.38-5.38l0,0c0-2.96,2.42-5.38,5.38-5.38h122.56
				c2.96,0,5.38,2.42,5.38,5.38l0,0C136.87,96.84,134.44,99.26,131.48,99.26z"/>
		</g>
	</g>
	<g>
		<g>
			<circle class="st5" cx="67.62" cy="125.71" r="20.99"/>
		</g>
		<text transform="matrix(1 0 0 1 54.0454 132.6182)" class="st6 st7 st8">2€</text>
	</g>
</g>
<g id="Layer_3_00000003078289997964298110000011554728595952969368_">
	<path class="st3" d="M116.3,86.05c2.72,12.19-0.92,20.74-5.3,16.38c-3.19-3.17,3.06-14.86-6.48-13.93
		c-1.11,0.13,2.25,9.9-2.81,8.31c-4.54-1.43-2.17-10.71-5.01-10.71"/>
</g>
</svg>
