<?xml version="1.0" encoding="utf-8"?>
<!-- Generator: Adobe Illustrator 27.3.1, SVG Export Plug-In . SVG Version: 6.00 Build 0)  -->
<svg version="1.1" xmlns="http://www.w3.org/2000/svg" xmlns:xlink="http://www.w3.org/1999/xlink" x="0px" y="0px"
	 viewBox="0 0 140 160" style="enable-background:new 0 0 140 160;" xml:space="preserve">
<style type="text/css">
	.st0{fill:#C4E5CB;}
	.st1{fill:#FCFFBC;}
	.st2{fill:#E17559;}
	.st3{fill:#EEC2DB;}
	.st4{fill:#7BC2EB;}
	.st5{fill:#A8D9EA;}
	.st6{fill:#FFFFFF;}
	.st7{font-family:'Verdana-Bold';}
	.st8{font-size:19.161px;}
</style>
<g id="Layer_1">
	<g id="Layer_1_00000066497166434682068070000003250622645666043311_">
		<g id="Layer_1_00000125591207859680787640000015038734657474680733_">
		</g>
		<g id="Layer_3">
			<path class="st0" d="M61.22,106.82L61.22,106.82c-3.28,0.84-6.65-1.16-7.48-4.44L29.97,9.18c-0.84-3.28,1.16-6.65,4.44-7.48l0,0
				c3.28-0.84,6.65,1.16,7.48,4.44l23.77,93.2C66.5,102.62,64.5,105.99,61.22,106.82z"/>
			<path class="st1" d="M6.59,92.04c0-22.84,17.62-41.36,39.35-41.36S85.28,69.2,85.28,92.04S6.59,114.88,6.59,92.04z"/>
			<circle class="st2" cx="90.58" cy="44.97" r="33.62"/>
			<g>
				<path class="st3" d="M69.4,55.68l-0.48-0.28c-1.59-0.92-0.81-2.2,0.1-3.79L88.65,17.6c0.92-1.59,1.64-2.9,3.23-1.98l0.48,0.28
					c1.59,0.92,0.72,2.15-0.2,3.74l-19.63,34C71.62,55.23,70.99,56.6,69.4,55.68z"/>
				<path class="st3" d="M76.9,21.06l0.29-0.47c0.98-1.55,2.23-0.73,3.78,0.25l33.21,20.96c1.55,0.98,2.83,1.76,1.85,3.31
					l-0.29,0.47c-0.98,1.55-2.17,0.63-3.72-0.34L78.81,24.27C77.26,23.29,75.92,22.61,76.9,21.06z"/>
				<path class="st3" d="M71.01,31.25l0.29-0.47c0.98-1.55,2.23-0.73,3.78,0.25L108.29,52c1.55,0.98,2.83,1.76,1.85,3.31l-0.29,0.47
					c-0.98,1.55-2.17,0.63-3.72-0.34L72.92,34.46C71.37,33.49,70.03,32.8,71.01,31.25z"/>
				<path class="st3" d="M63.51,42.28l0.29-0.47c0.98-1.55,2.23-0.73,3.78,0.25l33.21,20.96c1.55,0.98,2.83,1.76,1.85,3.31
					l-0.29,0.47c-0.98,1.55-2.17,0.63-3.72-0.34L65.42,45.49C63.87,44.51,62.53,43.83,63.51,42.28z"/>
				<path class="st3" d="M80.57,61.26l-0.48-0.28c-1.59-0.92-0.81-2.2,0.1-3.79l19.63-34.01c0.92-1.59,1.64-2.9,3.23-1.98l0.48,0.28
					c1.59,0.92,0.72,2.15-0.2,3.74l-19.62,34C82.79,60.81,82.16,62.18,80.57,61.26z"/>
				<path class="st3" d="M90.58,67.92l-0.48-0.28c-1.59-0.92-0.81-2.2,0.1-3.79l19.63-34.01c0.92-1.59,1.64-2.9,3.23-1.98l0.48,0.28
					c1.59,0.92,0.72,2.15-0.2,3.74l-19.63,34C92.8,67.46,92.16,68.83,90.58,67.92z"/>
			</g>
			<path class="st3" d="M51.24,92.04c0-22.84,17.62-41.36,39.35-41.36s39.35,18.52,39.35,41.36S51.24,114.89,51.24,92.04z"/>
			<polygon class="st4" points="7.6,98.25 19.12,158.48 118.6,158.48 130.4,100.96 			"/>
			<path class="st5" d="M131.28,103.64H8.72c-2.96,0-5.38-2.42-5.38-5.38l0,0c0-2.96,2.42-5.38,5.38-5.38h122.56
				c2.96,0,5.38,2.42,5.38,5.38l0,0C136.67,101.21,134.24,103.64,131.28,103.64z"/>
		</g>
		<g>
			<g>
				<circle class="st5" cx="67.62" cy="130.71" r="20.99"/>
			</g>
			<text transform="matrix(1 0 0 1 54.0454 137.6182)" class="st6 st7 st8">3€</text>
		</g>
	</g>
</g>
<g id="Layer_3_00000057122659590661013260000005097341144800070807_">
	<path class="st3" d="M129.42,85.46c2.02,17.01-2.32,26.27-5.37,23.1s2.46-16.09-5.36-15.8c-2.23,0.08-0.41,6.14-2.64,6.14
		c-3.45,0-0.61-6.14-3.45-6.14"/>
</g>
</svg>
