<?xml version="1.0" encoding="utf-8"?>
<!-- Generator: Adobe Illustrator 27.3.1, SVG Export Plug-In . SVG Version: 6.00 Build 0)  -->
<svg version="1.1" id="Layer_3" xmlns="http://www.w3.org/2000/svg" xmlns:xlink="http://www.w3.org/1999/xlink" x="0px" y="0px"
	 viewBox="0 0 140 160" style="enable-background:new 0 0 140 160;" xml:space="preserve">
<style type="text/css">
	.st0{fill:#A8D9EA;}
	.st1{fill:#E17559;}
	.st2{fill:#EEC2DB;}
	.st3{fill:#C4E5CB;}
	.st4{fill:#FCFFBC;}
	.st5{fill:#7BC2EB;}
	.st6{fill:#FFFFFF;}
	.st7{font-family:'Verdana-Bold';}
	.st8{font-size:19.161px;}
</style>
<path class="st0" d="M25.55,62.79c0-22.84,17.62-41.36,39.35-41.36s39.35,18.52,39.35,41.36S25.55,85.64,25.55,62.79z"/>
<path class="st0" d="M26.94,51.91"/>
<path class="st0" d="M47.48,25.7"/>
<g>
	<circle class="st1" cx="94.7" cy="46.83" r="33.62"/>
	<g>
		<path class="st2" d="M73.51,57.53l-0.48-0.28c-1.59-0.92-0.81-2.2,0.1-3.79l19.63-34.01c0.92-1.59,1.64-2.9,3.23-1.98l0.48,0.28
			c1.59,0.92,0.72,2.15-0.2,3.74L76.65,55.5C75.73,57.08,75.1,58.45,73.51,57.53z"/>
		<path class="st2" d="M81.01,22.91l0.29-0.47c0.98-1.55,2.23-0.73,3.78,0.25l33.21,20.96c1.55,0.98,2.83,1.76,1.85,3.31l-0.29,0.47
			c-0.98,1.55-2.17,0.63-3.72-0.34L82.92,26.12C81.37,25.14,80.03,24.46,81.01,22.91z"/>
		<path class="st2" d="M75.12,33.1l0.29-0.47c0.98-1.55,2.23-0.73,3.78,0.25l33.21,20.96c1.55,0.98,2.83,1.76,1.85,3.31l-0.29,0.47
			c-0.98,1.55-2.17,0.63-3.72-0.34l-33.2-20.96C75.49,35.34,74.15,34.65,75.12,33.1z"/>
		<path class="st2" d="M67.62,44.13l0.29-0.47c0.98-1.55,2.23-0.73,3.78,0.25l33.21,20.96c1.55,0.98,2.83,1.76,1.85,3.31l-0.29,0.47
			c-0.98,1.55-2.17,0.63-3.72-0.34L69.53,47.34C67.98,46.37,66.64,45.68,67.62,44.13z"/>
		<path class="st2" d="M84.69,63.12l-0.48-0.28c-1.59-0.92-0.81-2.2,0.1-3.79l19.63-34.01c0.92-1.59,1.64-2.9,3.23-1.98l0.48,0.28
			c1.59,0.92,0.72,2.15-0.2,3.74l-19.63,34C86.91,62.67,86.27,64.03,84.69,63.12z"/>
		<path class="st2" d="M94.69,69.77l-0.48-0.28c-1.59-0.92-0.81-2.2,0.1-3.79l19.63-34.01c0.92-1.59,1.64-2.9,3.23-1.98l0.48,0.28
			c1.59,0.92,0.72,2.15-0.2,3.74l-19.62,34C96.91,69.32,96.28,70.68,94.69,69.77z"/>
	</g>
</g>
<path class="st3" d="M58.81,107.27L58.81,107.27c-3.28,0.84-6.65-1.16-7.48-4.44L27.56,9.62C26.72,6.34,28.72,2.97,32,2.14l0,0
	c3.28-0.84,6.65,1.16,7.48,4.44l23.77,93.2C64.09,103.06,62.09,106.43,58.81,107.27z"/>
<path class="st4" d="M6.06,92.04c0-22.84,17.62-41.36,39.35-41.36S84.75,69.2,84.75,92.04S6.06,114.88,6.06,92.04z"/>
<path class="st2" d="M50.71,92.04c0-22.84,17.62-41.36,39.35-41.36S129.4,69.2,129.4,92.04S50.71,114.88,50.71,92.04z"/>
<polygon class="st5" points="7.07,98.25 18.59,158.48 118.08,158.48 129.87,100.96 "/>
<path class="st0" d="M130.76,103.64H8.19c-2.96,0-5.38-2.42-5.38-5.38l0,0c0-2.96,2.42-5.38,5.38-5.38h122.56
	c2.96,0,5.38,2.42,5.38,5.38l0,0C136.14,101.21,133.72,103.64,130.76,103.64z"/>
<g>
	<g>
		<circle class="st0" cx="68.47" cy="133.11" r="20.99"/>
	</g>
	<text transform="matrix(1 0 0 1 54.8957 140.0189)" class="st6 st7 st8">4€</text>
</g>
<path class="st2" d="M128.92,85.57c2.02,17.01-2.32,26.27-5.37,23.1c-3.05-3.17,2.46-16.09-5.36-15.8
	c-2.23,0.08-0.41,6.14-2.64,6.14c-3.45,0-0.61-6.14-3.45-6.14"/>
<path class="st0" d="M27.26,50.68c-2.18,7.19-2.14,18.3,2.83,16.14c6.05-2.63-1.08-13.47,3.05-13.84c1.75-0.16,1.62,6.47,2.73,7.34
	c2.74,2.16,2.94-5.32,2.33-8.95"/>
</svg>
