<?xml version="1.0" encoding="utf-8"?>
<!-- Generator: Adobe Illustrator 27.3.1, SVG Export Plug-In . SVG Version: 6.00 Build 0)  -->
<svg version="1.1" id="Layer_1" xmlns="http://www.w3.org/2000/svg" xmlns:xlink="http://www.w3.org/1999/xlink" x="0px" y="0px"
	 viewBox="0 0 140 160" style="enable-background:new 0 0 140 160;" xml:space="preserve">
<style type="text/css">
	.st0{fill:#E17559;}
	.st1{fill:#EEC2DB;}
	.st2{fill:#FCFFBC;}
	.st3{fill:#A8D9EA;}
	.st4{fill:#FFFFFF;}
	.st5{font-family:'Verdana-Bold';}
	.st6{font-size:19.161px;}
</style>
<g id="Layer_3">
	<g>
		<g>
			<circle class="st0" cx="93.3" cy="51.3" r="33.6"/>
			<g>
				<path class="st1" d="M72.1,62l-0.5-0.3c-1.6-0.9-0.8-2.2,0.1-3.8l19.6-34c0.9-1.6,1.6-2.9,3.2-2l0.5,0.3
					c1.6,0.9,0.7,2.1-0.2,3.7L75.3,60C74.3,61.5,73.7,62.9,72.1,62z"/>
				<path class="st1" d="M79.6,27.4l0.3-0.5c1-1.5,2.2-0.7,3.8,0.2l33.2,21c1.6,1,2.8,1.8,1.8,3.3l-0.3,0.5c-1,1.5-2.2,0.6-3.7-0.3
					l-33.2-21C80,29.6,78.6,28.9,79.6,27.4z"/>
				<path class="st1" d="M73.7,37.6l0.3-0.5c1-1.5,2.2-0.7,3.8,0.2l33.2,21c1.6,1,2.8,1.8,1.8,3.3l-0.3,0.5c-1,1.5-2.2,0.6-3.7-0.3
					l-33.2-21C74.1,39.8,72.8,39.1,73.7,37.6z"/>
				<path class="st1" d="M66.2,48.6l0.3-0.5c1-1.5,2.2-0.7,3.8,0.2l33.2,21c1.6,1,2.8,1.8,1.8,3.3l-0.3,0.5c-1,1.6-2.2,0.6-3.7-0.3
					l-33.2-21C66.6,50.8,65.2,50.1,66.2,48.6z"/>
				<path class="st1" d="M83.3,67.6l-0.5-0.3c-1.6-0.9-0.8-2.2,0.1-3.8l19.6-34c0.9-1.6,1.6-2.9,3.2-2l0.5,0.3
					c1.6,0.9,0.7,2.1-0.2,3.7l-19.6,34C85.5,67.1,84.9,68.5,83.3,67.6z"/>
				<path class="st1" d="M93.3,74.2l-0.5-0.3c-1.6-0.9-0.8-2.2,0.1-3.8l19.6-34c0.9-1.6,1.6-2.9,3.2-2l0.5,0.3
					c1.6,0.9,0.7,2.2-0.2,3.7l-19.6,34C95.5,73.8,94.9,75.1,93.3,74.2z"/>
			</g>
		</g>
	</g>
</g>
<circle class="st2" cx="70" cy="99" r="49.4"/>
<g id="Layer_1_00000064324470331054618790000016862860859617910682_">
</g>
<g>
	<g>
		<circle class="st3" cx="70.1" cy="105.3" r="21"/>
	</g>
	<text transform="matrix(1 0 0 1 56.4967 112.2371)" class="st4 st5 st6">1€</text>
</g>
<g id="Layer_3_00000003078289997964298110000011554728595952969368_">
	<path class="st2" d="M81.8,82.9c2.7,12.2-0.9,20.7-5.3,16.4c-3.2-3.2,3.1-14.9-6.5-13.9c-1.1,0.1,2.2,9.9-2.8,8.3
		C62.7,92.2,65,83,62.2,83"/>
</g>
</svg>
