<?xml version="1.0" encoding="utf-8"?>
<!-- Generator: Adobe Illustrator 27.3.1, SVG Export Plug-In . SVG Version: 6.00 Build 0)  -->
<svg version="1.1" id="Layer_3" xmlns="http://www.w3.org/2000/svg" xmlns:xlink="http://www.w3.org/1999/xlink" x="0px" y="0px"
	 viewBox="0 0 140 160" style="enable-background:new 0 0 140 160;" xml:space="preserve">
<style type="text/css">
	.st0{fill:#A8D9EA;}
	.st1{fill:#E17559;}
	.st2{fill:#EEC2DB;}
	.st3{fill:#C4E5CB;}
	.st4{fill:#FCFFBC;}
	.st5{fill:#FFFFFF;}
	.st6{font-family:'Verdana-Bold';}
	.st7{font-size:19.161px;}
</style>
<path class="st0" d="M25.5,62.8c0-22.8,17.6-41.4,39.3-41.4s39.3,18.5,39.3,41.4S25.5,85.6,25.5,62.8z"/>
<path class="st0" d="M26.9,51.9"/>
<path class="st0" d="M47.5,25.7"/>
<g>
	<circle class="st1" cx="94.7" cy="46.8" r="33.6"/>
	<g>
		<path class="st2" d="M73.5,57.5L73,57.2c-1.6-0.9-0.8-2.2,0.1-3.8l19.6-34c0.9-1.6,1.6-2.9,3.2-2l0.5,0.3c1.6,0.9,0.7,2.1-0.2,3.7
			l-19.6,34C75.7,57.1,75.1,58.5,73.5,57.5z"/>
		<path class="st2" d="M81,22.9l0.3-0.5c1-1.5,2.2-0.7,3.8,0.2l33.2,21c1.6,1,2.8,1.8,1.8,3.3l-0.3,0.5c-1,1.5-2.2,0.6-3.7-0.3
			l-33.2-21C81.4,25.1,80,24.5,81,22.9z"/>
		<path class="st2" d="M75.1,33.1l0.3-0.5c1-1.5,2.2-0.7,3.8,0.2l33.2,21c1.6,1,2.8,1.8,1.8,3.3l-0.3,0.5c-1,1.5-2.2,0.6-3.7-0.3
			L77,36.3C75.5,35.3,74.2,34.7,75.1,33.1z"/>
		<path class="st2" d="M67.6,44.1l0.3-0.5c1-1.5,2.2-0.7,3.8,0.2l33.2,21c1.6,1,2.8,1.8,1.8,3.3l-0.3,0.5c-1,1.6-2.2,0.6-3.7-0.3
			l-33.2-21C68,46.4,66.6,45.7,67.6,44.1z"/>
		<path class="st2" d="M84.7,63.1l-0.5-0.3c-1.6-0.9-0.8-2.2,0.1-3.8l19.6-34c0.9-1.6,1.6-2.9,3.2-2l0.5,0.3
			c1.6,0.9,0.7,2.1-0.2,3.7l-19.6,34C86.9,62.7,86.3,64,84.7,63.1z"/>
		<path class="st2" d="M94.7,69.8l-0.5-0.3c-1.6-0.9-0.8-2.2,0.1-3.8l19.6-34c0.9-1.6,1.6-2.9,3.2-2l0.5,0.3
			c1.6,0.9,0.7,2.1-0.2,3.7l-19.6,34C96.9,69.3,96.3,70.7,94.7,69.8z"/>
	</g>
</g>
<path class="st3" d="M58.8,107.3L58.8,107.3c-3.3,0.8-6.7-1.2-7.5-4.4L27.6,9.6C26.7,6.3,28.7,3,32,2.1l0,0c3.3-0.8,6.7,1.2,7.5,4.4
	l23.8,93.2C64.1,103.1,62.1,106.4,58.8,107.3z"/>
<path class="st4" d="M6.1,92c0.3-22.8,17.6-41.4,39.3-41.4S85,69.2,84.8,92C84.2,142.7,5.4,146.2,6.1,92z"/>
<path class="st2" d="M50.7,92c0-22.8,17.6-41.4,39.3-41.4s39.3,18.5,39.3,41.4C129.4,144.9,50.7,143.9,50.7,92z"/>
<g>
	<g>
		<circle class="st0" cx="68.5" cy="134.5" r="21"/>
	</g>
	<text transform="matrix(1 0 0 1 54.8957 141.4189)" class="st5 st6 st7">3€</text>
</g>
<path class="st2" d="M74.8,112.9c-2.8,0,0,6.1-3.4,6.1c-2.2,0-0.4-6.1-2.6-6.1c-7.8-0.3-2.3,12.6-5.4,15.8
	c-3.1,3.2-7.4-6.1-5.4-23.1"/>
<path class="st0" d="M27.3,50.7c-2.2,7.2-2.1,18.3,2.8,16.1c6-2.6-1.1-13.5,3-13.8c1.8-0.2,1.6,6.5,2.7,7.3c2.7,2.2,2.9-5.3,2.3-9"
	/>
</svg>
