<?xml version="1.0" encoding="utf-8"?>
<!-- Generator: Adobe Illustrator 27.3.1, SVG Export Plug-In . SVG Version: 6.00 Build 0)  -->
<svg version="1.1" id="Layer_1" xmlns="http://www.w3.org/2000/svg" xmlns:xlink="http://www.w3.org/1999/xlink" x="0px" y="0px"
	 viewBox="0 0 140 160" style="enable-background:new 0 0 140 160;" xml:space="preserve">
<style type="text/css">
	.st0{fill:#FCFFBC;}
	.st1{fill:#E17559;}
	.st2{fill:#EEC2DB;}
	.st3{fill:#A8D9EA;}
	.st4{fill:#FFFFFF;}
	.st5{font-family:'Verdana-Bold';}
	.st6{font-size:19.161px;}
</style>
<g id="Layer_1_00000008129479884977455320000012701954992806680193_">
	<g id="Layer_1_00000066497166434682068070000003250622645666043311_">
		<g id="Layer_1_00000125591207859680787640000015038734657474680733_">
		</g>
		<g id="Layer_3">
			<path class="st0" d="M6.6,92C6.1,69.2,24.2,50.7,45.9,50.7S84.8,69.2,85.3,92C86.4,145.8,7.8,149,6.6,92z"/>
			<circle class="st1" cx="90.6" cy="45" r="33.6"/>
			<g>
				<path class="st2" d="M69.4,55.7l-0.5-0.3c-1.6-0.9-0.8-2.2,0.1-3.8l19.6-34c0.9-1.6,1.6-2.9,3.2-2l0.5,0.3
					c1.6,0.9,0.7,2.2-0.2,3.7l-19.6,34C71.6,55.2,71,56.6,69.4,55.7z"/>
				<path class="st2" d="M76.9,21.1l0.3-0.5c1-1.5,2.2-0.7,3.8,0.2l33.2,21c1.6,1,2.8,1.8,1.8,3.3l-0.3,0.5c-1,1.5-2.2,0.6-3.7-0.3
					l-33.2-21C77.3,23.3,75.9,22.6,76.9,21.1z"/>
				<path class="st2" d="M71,31.2l0.3-0.5c1-1.5,2.2-0.7,3.8,0.2l33.2,21c1.6,1,2.8,1.8,1.8,3.3l-0.3,0.5c-1,1.5-2.2,0.6-3.7-0.3
					l-33.2-21C71.4,33.5,70,32.8,71,31.2z"/>
				<path class="st2" d="M63.5,42.3l0.3-0.5c1-1.5,2.2-0.7,3.8,0.2l33.2,21c1.6,1,2.8,1.8,1.8,3.3l-0.3,0.5c-1,1.6-2.2,0.6-3.7-0.3
					l-33.2-21C63.9,44.5,62.5,43.8,63.5,42.3z"/>
				<path class="st2" d="M80.6,61.3L80.1,61c-1.6-0.9-0.8-2.2,0.1-3.8l19.6-34c0.9-1.6,1.6-2.9,3.2-2l0.5,0.3
					c1.6,0.9,0.7,2.1-0.2,3.7l-19.6,34C82.8,60.8,82.2,62.2,80.6,61.3z"/>
				<path class="st2" d="M90.6,67.9l-0.5-0.3c-1.6-0.9-0.8-2.2,0.1-3.8l19.6-34c0.9-1.6,1.6-2.9,3.2-2l0.5,0.3
					c1.6,0.9,0.7,2.1-0.2,3.7l-19.6,34C92.8,67.5,92.2,68.8,90.6,67.9z"/>
			</g>
			<path class="st2" d="M51.2,92C51,69.2,68.9,50.7,90.6,50.7s39.1,18.5,39.4,41.4C130.5,147.1,51.8,147.6,51.2,92z"/>
		</g>
		<g>
			<g>
				<circle class="st3" cx="67.6" cy="130.7" r="21"/>
			</g>
			<text transform="matrix(1 0 0 1 54.0454 137.6182)" class="st4 st5 st6">2€</text>
		</g>
	</g>
</g>
<g id="Layer_3_00000057122659590661013260000005097341144800070807_">
	<path class="st2" d="M71.3,102.8c2,17-2.3,26.3-5.4,23.1c-3-3.2,2.5-16.1-5.4-15.8c-2.2,0.1-0.4,6.1-2.6,6.1
		c-3.4,0-0.6-6.1-3.4-6.1"/>
</g>
</svg>
