<?xml version="1.0" encoding="utf-8"?>
<!-- Generator: Adobe Illustrator 27.3.1, SVG Export Plug-In . SVG Version: 6.00 Build 0)  -->
<svg version="1.1" id="Layer_1" xmlns="http://www.w3.org/2000/svg" xmlns:xlink="http://www.w3.org/1999/xlink" x="0px" y="0px"
	 viewBox="0 0 419 412" style="enable-background:new 0 0 419 412;" xml:space="preserve">
<style type="text/css">
	.st0{fill:#EEC2DB;}
	.st1{fill:#A8D9EA;}
	.st2{fill:#FCFFBC;}
	.st3{fill:#C4E5CB;}
	.st4{fill:#BCB9D8;}
</style>
<g>
	<path class="st0" d="M388.8,139.9L359.2,157c-3.1,1.8-7.1,0.7-8.9-2.4l0,0c-1.8-3.1-0.7-7.1,2.4-8.9l29.6-17.1
		c3.1-1.8,7.1-0.7,8.9,2.4l0,0C393,134.1,391.9,138.1,388.8,139.9z"/>
	<path class="st0" d="M254.4,183.9l-33.9-4.2c-3.6-0.4-6.1-3.7-5.7-7.3l0,0c0.4-3.6,3.7-6.1,7.3-5.7L256,171
		c3.6,0.4,6.1,3.7,5.7,7.3l0,0C261.3,181.8,258,184.4,254.4,183.9z"/>
	<path class="st0" d="M336.4,195.2l-19.9-27.8c-2.1-2.9-1.4-7,1.5-9.1l0,0c2.9-2.1,7-1.4,9.1,1.5l19.9,27.8c2.1,2.9,1.4,7-1.5,9.1
		l0,0C342.6,198.8,338.5,198.1,336.4,195.2z"/>
	<path class="st0" d="M383.5,351.4l-28.4-19c-3-2-3.8-6.1-1.8-9.1l0,0c2-3,6.1-3.8,9.1-1.8l28.4,19c3,2,3.8,6.1,1.8,9.1l0,0
		C390.5,352.6,386.5,353.4,383.5,351.4z"/>
	<path class="st1" d="M322.6,259.8l-3.5-34c-0.4-3.6,2.3-6.8,5.9-7.2l0,0c3.6-0.4,6.8,2.3,7.2,5.9l3.5,34c0.4,3.6-2.3,6.8-5.9,7.2
		l0,0C326.2,266,323,263.3,322.6,259.8z"/>
	<path class="st1" d="M318.6,374.8l-3.5-34c-0.4-3.6,2.3-6.8,5.9-7.2l0,0c3.6-0.4,6.8,2.3,7.2,5.9l3.5,34c0.4,3.6-2.3,6.8-5.9,7.2
		l0,0C322.2,381,319,378.4,318.6,374.8z"/>
	<path class="st1" d="M382.4,304.1l6.3-33.6c0.7-3.5,4.1-5.9,7.6-5.2l0,0c3.5,0.7,5.9,4.1,5.2,7.6l-6.3,33.6
		c-0.7,3.5-4.1,5.9-7.6,5.2l0,0C384.1,311.1,381.7,307.6,382.4,304.1z"/>
	<path class="st2" d="M386.5,205.9l-17.1-29.6c-1.8-3.1-0.7-7.1,2.4-8.9l0,0c3.1-1.8,7.1-0.7,8.9,2.4l17.1,29.6
		c1.8,3.1,0.7,7.1-2.4,8.9l0,0C392.3,210.1,388.2,209,386.5,205.9z"/>
	<path class="st2" d="M362,256.8l9.2-32.9c1-3.5,4.6-5.5,8.1-4.5l0,0c3.5,1,5.5,4.6,4.5,8.1l-9.2,32.9c-1,3.5-4.6,5.5-8.1,4.5l0,0
		C363.1,263.9,361,260.2,362,256.8z"/>
	<path class="st2" d="M348.6,393.3l9.2-32.9c1-3.5,4.6-5.5,8.1-4.5l0,0c3.5,1,5.5,4.6,4.5,8.1l-9.2,32.9c-1,3.5-4.6,5.5-8.1,4.5l0,0
		C349.7,400.4,347.6,396.8,348.6,393.3z"/>
	<path class="st2" d="M359.6,66.5l14.7-30.8c1.5-3.2,5.5-4.6,8.7-3.1l0,0c3.2,1.5,4.6,5.5,3.1,8.7l-14.7,30.8
		c-1.5,3.2-5.5,4.6-8.7,3.1l0,0C359.5,73.7,358.1,69.8,359.6,66.5z"/>
	<path class="st2" d="M286.6,10.6l33.6,6.3c3.5,0.7,5.9,4.1,5.2,7.6l0,0c-0.7,3.5-4.1,5.9-7.6,5.2l-33.6-6.3
		c-3.5-0.7-5.9-4.1-5.2-7.6l0,0C279.6,12.4,283.1,10,286.6,10.6z"/>
	<path class="st2" d="M265.6,248.3l28.4,19c3,2,3.8,6.1,1.8,9.1l0,0c-2,3-6.1,3.8-9.1,1.8l-28.4-19c-3-2-3.8-6.1-1.8-9.1l0,0
		C258.5,247.1,262.6,246.3,265.6,248.3z"/>
	<path class="st3" d="M299.9,79.4l20.1-27.6c2.1-2.9,6.2-3.6,9.1-1.5l0,0c2.9,2.1,3.6,6.2,1.5,9.1l-20.1,27.6
		c-2.1,2.9-6.2,3.6-9.1,1.4l0,0C298.4,86.4,297.7,82.3,299.9,79.4z"/>
	<path class="st3" d="M242.9,117.8l32.7-10c3.4-1.1,7.1,0.9,8.2,4.3l0,0c1,3.4-0.9,7.1-4.3,8.2l-32.7,10c-3.4,1.1-7.1-0.9-8.2-4.3
		l0,0C237.5,122.6,239.5,118.9,242.9,117.8z"/>
	<path class="st3" d="M99.9,137.1l32.7-10c3.4-1.1,7.1,0.9,8.2,4.3l0,0c1.1,3.4-0.9,7.1-4.3,8.2l-32.7,10c-3.4,1.1-7.1-0.9-8.2-4.3
		l0,0C94.5,141.8,96.4,138.1,99.9,137.1z"/>
	<path class="st3" d="M260.3,214.3l32.7-10c3.4-1.1,7.1,0.9,8.2,4.3l0,0c1,3.4-0.9,7.1-4.3,8.2l-32.7,10c-3.4,1.1-7.1-0.9-8.2-4.3
		l0,0C254.9,219.1,256.9,215.4,260.3,214.3z"/>
	<path class="st1" d="M391.4,114.3L359.5,102c-3.4-1.3-5-5.1-3.8-8.5l0,0c1.3-3.4,5.1-5,8.5-3.8l31.9,12.3c3.4,1.3,5,5.1,3.8,8.5
		l0,0C398.5,113.9,394.7,115.6,391.4,114.3z"/>
	<path class="st1" d="M213.2,136l-25,23.2c-2.6,2.4-6.8,2.3-9.2-0.3l0,0c-2.4-2.6-2.3-6.8,0.3-9.2l25-23.2c2.6-2.4,6.8-2.3,9.2,0.3
		l0,0C216,129.4,215.9,133.5,213.2,136z"/>
	<path class="st4" d="M332.6,137.6L306,116.2c-2.8-2.3-3.2-6.4-1-9.2l0,0c2.3-2.8,6.4-3.2,9.2-1l26.6,21.5c2.8,2.3,3.2,6.4,1,9.2
		l0,0C339.5,139.4,335.4,139.9,332.6,137.6z"/>
	<path class="st4" d="M353.9,292.2l-31.4,13.5c-3.3,1.4-7.2-0.1-8.6-3.4l0,0c-1.4-3.3,0.1-7.2,3.4-8.6l31.4-13.5
		c3.3-1.4,7.2,0.1,8.6,3.4l0,0C358.8,286.9,357.2,290.8,353.9,292.2z"/>
	<path class="st4" d="M288.7,385.6L257.3,399c-3.3,1.4-7.2-0.1-8.6-3.4l0,0c-1.4-3.3,0.1-7.2,3.4-8.6l31.4-13.5
		c3.3-1.4,7.2,0.1,8.6,3.4l0,0C293.6,380.3,292,384.2,288.7,385.6z"/>
	<path class="st0" d="M90.9,340.8l29.6-17.1c3.1-1.8,7.1-0.7,8.9,2.4l0,0c1.8,3.1,0.7,7.1-2.4,8.9l-29.6,17.1
		c-3.1,1.8-7.1,0.7-8.9-2.4l0,0C86.7,346.6,87.8,342.6,90.9,340.8z"/>
	<path class="st0" d="M225.3,296.8l33.9,4.2c3.6,0.4,6.1,3.7,5.7,7.3l0,0c-0.4,3.6-3.7,6.1-7.3,5.7l-33.9-4.2
		c-3.6-0.4-6.1-3.7-5.7-7.3l0,0C218.4,298.9,221.7,296.3,225.3,296.8z"/>
	<path class="st0" d="M143.3,285.5l19.9,27.8c2.1,2.9,1.4,7-1.5,9.1l0,0c-2.9,2.1-7,1.4-9.1-1.5l-19.9-27.8c-2.1-2.9-1.4-7,1.5-9.1
		l0,0C137.1,281.9,141.2,282.5,143.3,285.5z"/>
	<path class="st1" d="M36.7,319.5l33.6,6.3c3.5,0.7,5.9,4.1,5.2,7.6l0,0c-0.7,3.5-4.1,5.9-7.6,5.2l-33.6-6.3
		c-3.5-0.7-5.9-4.1-5.2-7.6l0,0C29.8,321.2,33.2,318.9,36.7,319.5z"/>
	<path class="st1" d="M157.1,220.9l3.4,34c0.4,3.6-2.3,6.8-5.9,7.2l0,0c-3.6,0.4-6.8-2.3-7.2-5.9l-3.4-34c-0.4-3.6,2.3-6.8,5.9-7.2
		l0,0C153.5,214.7,156.7,217.4,157.1,220.9z"/>
	<path class="st1" d="M97.3,176.6L91,210.2c-0.7,3.5-4.1,5.9-7.6,5.2l0,0c-3.5-0.7-5.9-4.1-5.2-7.6l6.3-33.6
		c0.7-3.5,4.1-5.9,7.6-5.2l0,0C95.6,169.6,98,173.1,97.3,176.6z"/>
	<path class="st2" d="M87.5,275.5l17.1,29.6c1.8,3.1,0.7,7.1-2.4,8.9l0,0c-3.1,1.8-7.1,0.7-8.9-2.4l-17.1-29.6
		c-1.8-3.1-0.7-7.1,2.4-8.9l0,0C81.7,271.4,85.7,272.4,87.5,275.5z"/>
	<path class="st2" d="M21.5,173.2L52,157.8c3.2-1.6,7.2-0.3,8.8,2.9l0,0c1.6,3.2,0.3,7.2-2.9,8.8l-30.5,15.4
		c-3.2,1.6-7.2,0.3-8.8-2.9l0,0C17,178.8,18.3,174.8,21.5,173.2z"/>
	<path class="st2" d="M117.7,223.9l-9.2,32.9c-1,3.5-4.6,5.5-8.1,4.5l0,0c-3.5-1-5.5-4.6-4.5-8.1l9.2-32.9c1-3.5,4.6-5.5,8.1-4.5
		l0,0C116.6,216.8,118.7,220.5,117.7,223.9z"/>
	<path class="st2" d="M214.1,232.4l-28.4-19c-3-2-3.8-6.1-1.8-9.1l0,0c2-3,6.1-3.8,9.1-1.8l28.4,19c3,2,3.8,6.1,1.8,9.1l0,0
		C221.2,233.6,217.1,234.4,214.1,232.4z"/>
	<path class="st3" d="M236.8,362.9l-32.7,10c-3.4,1-7.1-0.9-8.2-4.3l0,0c-1.1-3.4,0.9-7.1,4.3-8.2l32.7-10c3.4-1,7.1,0.9,8.2,4.3
		l0,0C242.2,358.1,240.2,361.8,236.8,362.9z"/>
	<path class="st3" d="M219.4,266.4l-32.7,10c-3.4,1-7.1-0.9-8.2-4.3l0,0c-1.1-3.4,0.9-7.1,4.3-8.2l32.7-10c3.4-1.1,7.1,0.9,8.2,4.3
		l0,0C224.8,261.6,222.8,265.3,219.4,266.4z"/>
	<path class="st3" d="M64.3,255.3l-34,3.4c-3.6,0.4-6.8-2.3-7.2-5.9l0,0c-0.4-3.6,2.3-6.8,5.9-7.2l34-3.4c3.6-0.4,6.8,2.3,7.2,5.9
		l0,0C70.5,251.7,67.9,255,64.3,255.3z"/>
	<path class="st1" d="M88.3,366.4l31.9,12.3c3.4,1.3,5,5.1,3.8,8.5l0,0c-1.3,3.4-5.1,5-8.5,3.8l-31.9-12.3c-3.4-1.3-5-5.1-3.8-8.5
		l0,0C81.2,366.8,85,365.1,88.3,366.4z"/>
	<path class="st1" d="M266.5,344.7l25-23.2c2.6-2.5,6.8-2.3,9.2,0.3l0,0c2.5,2.6,2.3,6.8-0.3,9.2l-25,23.2c-2.6,2.5-6.8,2.3-9.2-0.3
		l0,0C263.7,351.3,263.8,347.2,266.5,344.7z"/>
	<path class="st4" d="M58.5,360.5l8.3,33.1c0.9,3.5-1.3,7.1-4.8,7.9l0,0c-3.5,0.9-7.1-1.3-7.9-4.8l-8.3-33.1
		c-0.9-3.5,1.3-7.1,4.8-7.9l0,0C54,354.8,57.6,357,58.5,360.5z"/>
	<path class="st4" d="M147.1,343.1l26.6,21.5c2.8,2.3,3.2,6.4,1,9.2l0,0c-2.3,2.8-6.4,3.2-9.2,1l-26.6-21.5c-2.8-2.3-3.2-6.4-1-9.2
		l0,0C140.2,341.2,144.3,340.8,147.1,343.1z"/>
	<path class="st4" d="M125.8,188.5l31.4-13.5c3.3-1.4,7.2,0.1,8.6,3.4l0,0c1.4,3.3-0.1,7.2-3.4,8.6l-31.4,13.5
		c-3.3,1.4-7.2-0.1-8.6-3.4l0,0C120.9,193.8,122.5,189.9,125.8,188.5z"/>
	<path class="st0" d="M200.9,96.5l-17.1-29.6c-1.8-3.1-0.7-7.1,2.4-8.9l0,0c3.1-1.8,7.1-0.7,8.9,2.4L212.2,90
		c1.8,3.1,0.7,7.1-2.4,8.9l0,0C206.7,100.7,202.7,99.6,200.9,96.5z"/>
	<path class="st0" d="M145.6,44.1l27.8-19.9c2.9-2.1,7-1.4,9.1,1.5l0,0c2.1,2.9,1.4,7-1.5,9.1l-27.8,19.9c-2.9,2.1-7,1.4-9.1-1.5
		l0,0C142,50.3,142.7,46.2,145.6,44.1z"/>
	<path class="st1" d="M81.1,30.3l34-3.5c3.6-0.4,6.8,2.3,7.2,5.8l0,0c0.4,3.6-2.3,6.8-5.8,7.2l-34,3.5c-3.6,0.4-6.8-2.3-7.2-5.8l0,0
		C74.9,33.9,77.5,30.7,81.1,30.3z"/>
	<path class="st1" d="M36.8,90.2l33.6,6.3c3.5,0.7,5.9,4.1,5.2,7.6l0,0c-0.7,3.5-4.1,5.9-7.6,5.2L34.4,103c-3.5-0.7-5.9-4.1-5.2-7.6
		l0,0C29.8,91.8,33.2,89.5,36.8,90.2z"/>
	<path class="st2" d="M135.7,99.9l29.6-17.1c3.1-1.8,7.1-0.7,8.9,2.4l0,0c1.8,3.1,0.7,7.1-2.4,8.9l-29.6,17.1
		c-3.1,1.8-7.1,0.7-8.9-2.4l0,0C131.5,105.7,132.6,101.7,135.7,99.9z"/>
	<path class="st2" d="M84.1,69.7L117,79c3.5,1,5.5,4.6,4.5,8.1l0,0c-1,3.5-4.6,5.5-8.1,4.5l-32.9-9.2c-3.5-1-5.5-4.6-4.5-8.1l0,0
		C77,70.8,80.6,68.8,84.1,69.7z"/>
	<path class="st4" d="M203.2,40.3l21.5-26.6c2.3-2.8,6.4-3.2,9.2-1l0,0c2.8,2.3,3.2,6.4,1,9.2l-21.5,26.6c-2.3,2.8-6.4,3.2-9.2,1
		l0,0C201.4,47.2,201,43.1,203.2,40.3z"/>
	<path class="st4" d="M48.7,61.7L35.2,30.3c-1.4-3.3,0.1-7.2,3.4-8.6l0,0c3.3-1.4,7.2,0.1,8.6,3.4l13.5,31.4
		c1.4,3.3-0.1,7.2-3.4,8.6l0,0C54,66.5,50.1,65,48.7,61.7z"/>
</g>
</svg>
