<?xml version="1.0" encoding="utf-8"?>
<!-- Generator: Adobe Illustrator 27.3.1, SVG Export Plug-In . SVG Version: 6.00 Build 0)  -->
<svg version="1.1" id="Layer_1" xmlns="http://www.w3.org/2000/svg" xmlns:xlink="http://www.w3.org/1999/xlink" x="0px" y="0px"
	 viewBox="0 0 419 412" style="enable-background:new 0 0 419 412;" xml:space="preserve">
<style type="text/css">
	.st0{fill:#EEC2DB;}
	.st1{fill:#A8D9EA;}
	.st2{fill:#FCFFBC;}
	.st3{fill:#C4E5CB;}
	.st4{fill:#BCB9D8;}
</style>
<path class="st0" d="M388.76,139.93l-29.59,17.08c-3.12,1.8-7.14,0.72-8.94-2.39v0c-1.8-3.12-0.72-7.14,2.39-8.94l29.59-17.08
	c3.12-1.8,7.14-0.72,8.94,2.39v0C392.95,134.11,391.87,138.13,388.76,139.93z"/>
<path class="st0" d="M254.43,183.94l-33.91-4.17c-3.57-0.44-6.13-3.72-5.69-7.29v0c0.44-3.57,3.72-6.13,7.29-5.69l33.91,4.17
	c3.57,0.44,6.13,3.72,5.69,7.29v0C261.29,181.82,258,184.38,254.43,183.94z"/>
<path class="st0" d="M336.38,195.22l-19.89-27.77c-2.09-2.93-1.42-7.03,1.51-9.13l0,0c2.93-2.09,7.03-1.42,9.13,1.51l19.89,27.77
	c2.09,2.93,1.42,7.03-1.51,9.13l0,0C342.58,198.82,338.48,198.14,336.38,195.22z"/>
<path class="st0" d="M383.47,351.37l-28.4-18.98c-2.99-2-3.8-6.08-1.8-9.07l0,0c2-2.99,6.08-3.8,9.07-1.8l28.4,18.98
	c2.99,2,3.8,6.08,1.8,9.07v0C390.55,352.56,386.47,353.37,383.47,351.37z"/>
<path class="st1" d="M322.59,259.75l-3.45-33.99c-0.36-3.58,2.27-6.81,5.85-7.17h0c3.58-0.36,6.81,2.27,7.17,5.85l3.45,33.99
	c0.36,3.58-2.27,6.81-5.85,7.17l0,0C326.18,265.97,322.95,263.33,322.59,259.75z"/>
<path class="st1" d="M318.6,374.78l-3.45-33.99c-0.36-3.58,2.27-6.81,5.85-7.17l0,0c3.58-0.36,6.81,2.27,7.17,5.85l3.45,33.99
	c0.36,3.58-2.27,6.81-5.85,7.17h0C322.19,380.99,318.97,378.36,318.6,374.78z"/>
<path class="st1" d="M382.39,304.09l6.27-33.58c0.66-3.54,4.09-5.89,7.63-5.23h0c3.54,0.66,5.89,4.09,5.23,7.63l-6.27,33.58
	c-0.66,3.54-4.09,5.89-7.63,5.23h0C384.09,311.06,381.73,307.62,382.39,304.09z"/>
<path class="st2" d="M386.45,205.88l-17.08-29.59c-1.8-3.12-0.72-7.14,2.39-8.94h0c3.12-1.8,7.14-0.72,8.94,2.39l17.08,29.59
	c1.8,3.12,0.72,7.14-2.39,8.94l0,0C392.27,210.07,388.25,208.99,386.45,205.88z"/>
<path class="st2" d="M361.99,256.78l9.24-32.89c0.97-3.46,4.6-5.5,8.07-4.53l0,0c3.46,0.97,5.5,4.6,4.53,8.07l-9.24,32.89
	c-0.97,3.46-4.6,5.5-8.07,4.53l0,0C363.06,263.87,361.02,260.24,361.99,256.78z"/>
<path class="st2" d="M348.62,393.3l9.24-32.89c0.97-3.46,4.6-5.5,8.07-4.53l0,0c3.46,0.97,5.5,4.6,4.53,8.07l-9.24,32.89
	c-0.97,3.46-4.6,5.5-8.07,4.53v0C349.68,400.4,347.64,396.77,348.62,393.3z"/>
<path class="st2" d="M359.65,66.54l14.7-30.84c1.55-3.25,5.47-4.64,8.72-3.09v0c3.25,1.55,4.64,5.47,3.09,8.72l-14.7,30.84
	c-1.55,3.25-5.47,4.64-8.72,3.09l0,0C359.5,73.71,358.1,69.79,359.65,66.54z"/>
<path class="st2" d="M286.59,10.65l33.58,6.27c3.54,0.66,5.89,4.09,5.23,7.63v0c-0.66,3.54-4.09,5.89-7.63,5.23l-33.58-6.27
	c-3.54-0.66-5.89-4.09-5.23-7.63l0,0C279.62,12.35,283.06,9.99,286.59,10.65z"/>
<path class="st2" d="M265.6,248.31l28.4,18.98c2.99,2,3.8,6.08,1.8,9.07l0,0c-2,2.99-6.08,3.8-9.07,1.8l-28.4-18.98
	c-2.99-2-3.8-6.08-1.8-9.07v0C258.53,247.12,262.61,246.31,265.6,248.31z"/>
<path class="st3" d="M299.86,79.42l20.07-27.64c2.11-2.91,6.23-3.56,9.14-1.45l0,0c2.91,2.11,3.56,6.23,1.45,9.14L310.44,87.1
	c-2.11,2.91-6.23,3.56-9.14,1.45l0,0C298.4,86.44,297.74,82.33,299.86,79.42z"/>
<path class="st3" d="M242.91,117.85l32.67-9.98c3.44-1.05,7.12,0.9,8.17,4.34v0c1.05,3.44-0.9,7.12-4.34,8.17l-32.67,9.98
	c-3.44,1.05-7.12-0.9-8.17-4.34v0C237.51,122.57,239.47,118.9,242.91,117.85z"/>
<path class="st3" d="M99.88,137.1l32.67-9.98c3.44-1.05,7.12,0.9,8.17,4.34v0c1.05,3.44-0.9,7.12-4.34,8.17l-32.67,9.98
	c-3.44,1.05-7.12-0.9-8.17-4.34v0C94.49,141.83,96.44,138.15,99.88,137.1z"/>
<path class="st3" d="M260.33,214.34l32.67-9.98c3.44-1.05,7.12,0.9,8.17,4.34v0c1.05,3.44-0.9,7.12-4.34,8.17l-32.67,9.98
	c-3.44,1.05-7.12-0.9-8.17-4.34v0C254.93,219.07,256.89,215.39,260.33,214.34z"/>
<path class="st1" d="M391.36,114.32l-31.87-12.3c-3.36-1.3-5.04-5.1-3.75-8.46v0c1.3-3.36,5.1-5.04,8.46-3.75l31.87,12.3
	c3.36,1.3,5.04,5.1,3.75,8.46v0C398.52,113.93,394.71,115.62,391.36,114.32z"/>
<path class="st1" d="M213.21,135.98l-25.03,23.25c-2.64,2.45-6.8,2.3-9.25-0.34l0,0c-2.45-2.64-2.3-6.8,0.34-9.25l25.03-23.25
	c2.64-2.45,6.8-2.3,9.25,0.34l0,0C216,129.37,215.85,133.53,213.21,135.98z"/>
<path class="st4" d="M332.56,137.63l-26.57-21.47c-2.8-2.26-3.24-6.4-0.98-9.2v0c2.26-2.8,6.4-3.24,9.2-0.98l26.57,21.47
	c2.8,2.26,3.24,6.4,0.98,9.2l0,0C339.5,139.45,335.36,139.89,332.56,137.63z"/>
<path class="st4" d="M353.91,292.16l-31.4,13.46c-3.31,1.42-7.17-0.13-8.59-3.43l0,0c-1.42-3.31,0.13-7.17,3.43-8.59l31.4-13.46
	c3.31-1.42,7.17,0.13,8.59,3.43l0,0C358.77,286.88,357.22,290.75,353.91,292.16z"/>
<path class="st4" d="M288.72,385.59l-31.4,13.46c-3.31,1.42-7.17-0.13-8.59-3.43h0c-1.42-3.31,0.13-7.17,3.43-8.59l31.4-13.46
	c3.31-1.42,7.17,0.13,8.59,3.43v0C293.57,380.3,292.02,384.17,288.72,385.59z"/>
<path class="st0" d="M90.93,340.76l29.59-17.08c3.12-1.8,7.14-0.72,8.94,2.39l0,0c1.8,3.12,0.72,7.14-2.39,8.94L97.47,352.1
	c-3.12,1.8-7.14,0.72-8.94-2.39l0,0C86.74,346.59,87.82,342.56,90.93,340.76z"/>
<path class="st0" d="M225.26,296.75l33.91,4.17c3.57,0.44,6.13,3.72,5.69,7.29l0,0c-0.44,3.57-3.72,6.13-7.29,5.69l-33.91-4.17
	c-3.57-0.44-6.13-3.72-5.69-7.29l0,0C218.4,298.88,221.69,296.31,225.26,296.75z"/>
<path class="st0" d="M143.31,285.48l19.89,27.77c2.09,2.93,1.42,7.03-1.51,9.13h0c-2.93,2.09-7.03,1.42-9.13-1.51l-19.89-27.77
	c-2.09-2.93-1.42-7.03,1.51-9.13l0,0C137.11,281.88,141.21,282.55,143.31,285.48z"/>
<path class="st1" d="M36.73,319.55l33.58,6.27c3.54,0.66,5.89,4.09,5.23,7.63v0c-0.66,3.54-4.09,5.89-7.63,5.23l-33.58-6.27
	c-3.54-0.66-5.89-4.09-5.23-7.63h0C29.76,321.24,33.19,318.89,36.73,319.55z"/>
<path class="st1" d="M157.1,220.94l3.45,33.99c0.36,3.58-2.27,6.81-5.85,7.17h0c-3.58,0.36-6.81-2.27-7.17-5.85l-3.45-33.99
	c-0.36-3.58,2.27-6.81,5.85-7.17h0C153.51,214.73,156.74,217.36,157.1,220.94z"/>
<path class="st1" d="M97.3,176.61l-6.27,33.58c-0.66,3.54-4.09,5.89-7.63,5.23h0c-3.54-0.66-5.89-4.09-5.23-7.63l6.27-33.58
	c0.66-3.54,4.09-5.89,7.63-5.23h0C95.6,169.64,97.96,173.07,97.3,176.61z"/>
<path class="st2" d="M87.52,275.54l17.08,29.59c1.8,3.12,0.72,7.14-2.39,8.94l0,0c-3.12,1.8-7.14,0.72-8.94-2.39l-17.08-29.59
	c-1.8-3.12-0.72-7.14,2.39-8.94h0C81.7,271.35,85.72,272.43,87.52,275.54z"/>
<path class="st2" d="M21.51,173.22L52,157.83c3.21-1.62,7.17-0.32,8.79,2.89l0,0c1.62,3.21,0.32,7.17-2.89,8.79L27.4,184.9
	c-3.21,1.62-7.17,0.32-8.79-2.89l0,0C16.99,178.79,18.29,174.84,21.51,173.22z"/>
<path class="st2" d="M117.7,223.92l-9.24,32.89c-0.97,3.46-4.6,5.5-8.07,4.53h0c-3.46-0.97-5.5-4.6-4.53-8.07l9.24-32.89
	c0.97-3.46,4.6-5.5,8.07-4.53h0C116.63,216.83,118.67,220.46,117.7,223.92z"/>
<path class="st2" d="M214.09,232.39l-28.4-18.98c-2.99-2-3.8-6.08-1.8-9.07l0,0c2-2.99,6.08-3.8,9.07-1.8l28.4,18.98
	c2.99,2,3.8,6.08,1.8,9.07h0C221.16,233.57,217.08,234.39,214.09,232.39z"/>
<path class="st3" d="M236.78,362.85l-32.67,9.98c-3.44,1.05-7.12-0.9-8.17-4.34l0,0c-1.05-3.44,0.9-7.12,4.34-8.17l32.67-9.98
	c3.44-1.05,7.12,0.9,8.17,4.34l0,0C242.18,358.12,240.22,361.8,236.78,362.85z"/>
<path class="st3" d="M219.36,266.36l-32.67,9.98c-3.44,1.05-7.12-0.9-8.17-4.34l0,0c-1.05-3.44,0.9-7.12,4.34-8.17l32.67-9.98
	c3.44-1.05,7.12,0.9,8.17,4.34l0,0C224.76,261.63,222.8,265.31,219.36,266.36z"/>
<path class="st3" d="M64.3,255.33l-33.99,3.45c-3.58,0.36-6.81-2.27-7.17-5.85l0,0c-0.36-3.58,2.27-6.81,5.85-7.17l33.99-3.45
	c3.58-0.36,6.81,2.27,7.17,5.85v0C70.51,251.74,67.88,254.96,64.3,255.33z"/>
<path class="st1" d="M88.33,366.38l31.87,12.3c3.36,1.3,5.04,5.1,3.75,8.46h0c-1.3,3.36-5.1,5.04-8.46,3.75l-31.87-12.3
	c-3.36-1.3-5.04-5.1-3.75-8.46l0,0C81.17,366.77,84.98,365.08,88.33,366.38z"/>
<path class="st1" d="M266.48,344.72l25.03-23.25c2.64-2.45,6.8-2.3,9.25,0.34l0,0c2.45,2.64,2.3,6.8-0.34,9.25l-25.03,23.25
	c-2.64,2.45-6.8,2.3-9.25-0.34l0,0C263.69,351.33,263.84,347.17,266.48,344.72z"/>
<path class="st4" d="M58.49,360.47l8.32,33.13c0.88,3.49-1.26,7.06-4.75,7.94h0c-3.49,0.88-7.06-1.26-7.94-4.75l-8.32-33.13
	c-0.88-3.49,1.26-7.06,4.75-7.94h0C54.04,354.84,57.61,356.98,58.49,360.47z"/>
<path class="st4" d="M147.13,343.07l26.57,21.47c2.8,2.26,3.24,6.4,0.98,9.2v0c-2.26,2.8-6.4,3.24-9.2,0.98l-26.57-21.47
	c-2.8-2.26-3.24-6.4-0.98-9.2l0,0C140.19,341.25,144.33,340.81,147.13,343.07z"/>
<path class="st4" d="M125.78,188.53l31.4-13.46c3.31-1.42,7.17,0.13,8.59,3.43l0,0c1.42,3.31-0.13,7.17-3.43,8.59l-31.4,13.46
	c-3.31,1.42-7.17-0.13-8.59-3.43l0,0C120.92,193.82,122.47,189.95,125.78,188.53z"/>
<path class="st0" d="M200.92,96.51l-17.08-29.59c-1.8-3.12-0.72-7.14,2.39-8.94l0,0c3.12-1.8,7.14-0.72,8.94,2.39l17.08,29.59
	c1.8,3.12,0.72,7.14-2.39,8.94l0,0C206.74,100.7,202.72,99.63,200.92,96.51z"/>
<path class="st0" d="M145.63,44.14l27.77-19.89c2.93-2.09,7.03-1.42,9.13,1.51l0,0c2.09,2.93,1.42,7.03-1.51,9.13l-27.77,19.89
	c-2.93,2.09-7.03,1.42-9.13-1.51l0,0C142.03,50.34,142.71,46.23,145.63,44.14z"/>
<path class="st1" d="M81.1,30.34l33.99-3.45c3.58-0.36,6.81,2.27,7.17,5.85v0c0.36,3.58-2.27,6.81-5.85,7.17l-33.99,3.45
	c-3.58,0.36-6.81-2.27-7.17-5.85v0C74.89,33.93,77.52,30.7,81.1,30.34z"/>
<path class="st1" d="M36.76,90.15l33.58,6.27c3.54,0.66,5.89,4.09,5.23,7.63v0c-0.66,3.54-4.09,5.89-7.63,5.23l-33.58-6.27
	c-3.54-0.66-5.89-4.09-5.23-7.63l0,0C29.79,91.84,33.23,89.49,36.76,90.15z"/>
<path class="st2" d="M135.7,99.92l29.59-17.08c3.12-1.8,7.14-0.72,8.94,2.39v0c1.8,3.12,0.72,7.14-2.39,8.94l-29.59,17.08
	c-3.12,1.8-7.14,0.72-8.94-2.39l0,0C131.5,105.74,132.58,101.72,135.7,99.92z"/>
<path class="st2" d="M84.08,69.74l32.89,9.24c3.46,0.97,5.5,4.6,4.53,8.07v0c-0.97,3.46-4.6,5.5-8.07,4.53l-32.89-9.24
	c-3.46-0.97-5.5-4.6-4.53-8.07v0C76.98,70.81,80.61,68.77,84.08,69.74z"/>
<path class="st4" d="M203.23,40.31l21.47-26.57c2.26-2.8,6.4-3.24,9.2-0.98l0,0c2.8,2.26,3.24,6.4,0.98,9.2L213.4,48.54
	c-2.26,2.8-6.4,3.24-9.2,0.98v0C201.41,47.25,200.97,43.11,203.23,40.31z"/>
<path class="st4" d="M48.69,61.67l-13.46-31.4c-1.42-3.31,0.13-7.17,3.43-8.59l0,0c3.31-1.42,7.17,0.13,8.59,3.43l13.46,31.4
	c1.42,3.31-0.13,7.17-3.43,8.59l0,0C53.97,66.52,50.11,64.97,48.69,61.67z"/>
</svg>
